<svg width="512" height="512" viewBox="0 0 512 512" fill="none" xmlns="http://www.w3.org/2000/svg">
<rect width="512" height="512" fill="white"/>
<rect width="512" height="512" fill="white"/>
<g clip-path="url(#clip0_654_312)">
<path d="M442.103 81.2432V168.399L267.028 168.38C255.646 169.364 244.302 171.066 233.357 174.301C130.842 204.412 142.338 333.576 214.254 390.337C232.541 404.769 267.009 415.701 290.286 414.415C346.949 411.294 372.255 349.388 379.312 301.214L342.586 289.166L341.941 288.22C379.369 281.487 451.057 276.229 457.526 327.997C458.759 337.851 457.222 349.256 457.108 359.243L457.583 477.947H337.597C300.833 484.227 262.343 485.4 225.162 482.487C157.363 477.153 103.829 437.642 75.981 376.587C38.3823 294.197 51.6234 197.981 113.371 131.384C141.693 100.838 188.568 83.7398 229.752 81.716L230.853 81.2432H442.103Z" fill="#25346F"/>
<path d="M299.79 263.783H276.798V240.859C276.798 232.329 269.836 225.406 261.3 225.406H255.685C247.129 225.406 240.186 232.348 240.186 240.859V263.783H217.194C208.639 263.783 201.696 270.724 201.696 279.236V284.834C201.696 293.365 208.658 300.287 217.194 300.287H240.186V323.211C240.186 331.741 247.148 338.664 255.685 338.664H261.3C269.855 338.664 276.798 331.722 276.798 323.211V300.287H299.79C308.345 300.287 315.289 293.346 315.289 284.834V279.236C315.289 270.706 308.327 263.783 299.79 263.783Z" fill="#BA882C"/>
<path d="M89.8481 112.509V111.355C98.176 77.6689 127.485 47.4441 160.436 35.4337C169.636 32.0859 182.403 28.8138 191.888 28.3031C199.799 27.887 207.538 27.9059 215.468 28.3031C220.723 28.549 225.788 30.0243 230.985 30.7997C235.083 31.405 238.991 32.5398 242.823 33.9962C247.432 35.7363 251.985 37.0414 256.519 39.0463C265.416 42.9993 273.63 47.917 281.579 53.4021C283.627 54.8206 283.608 58.1874 282.698 59.814C281.522 61.8567 279.454 62.9159 276.95 62.6322L253.313 59.9464C234.723 57.828 214.444 57.5443 196.043 60.5327C191.926 61.1947 187.98 62.0837 183.94 63.0294C161.024 68.401 138.943 81.3571 120.864 96.2236C112.916 102.749 105.859 109.501 98.4036 116.5C97.3223 117.521 94.9701 117.71 93.6232 117.332C92.4281 117.01 90.9105 115.611 90.5121 114.305L89.8481 112.546V112.509Z" fill="#BA882C"/>
<path d="M247.205 170.858C222.487 175.36 198.091 187.484 181.929 207.306L176.826 202.293C185.969 190.491 197.37 181.242 210.517 174.168C235.462 160.777 263.614 157.675 291.595 161.95V167.945C276.532 167.416 262.001 168.172 247.205 170.858Z" fill="#BA882C"/>
</g>
<defs>
<clipPath id="clip0_654_312">
<rect width="403" height="456" fill="white" transform="translate(55 28)"/>
</clipPath>
</defs>
</svg>
